<svg version="1.1" xmlns="http://www.w3.org/2000/svg" xmlns:xlink="http://www.w3.org/1999/xlink" width="149" height="149" viewBox="0,0,149,149"><defs><radialGradient cx="320" cy="180" r="74.5" gradientUnits="userSpaceOnUse" id="color-1"><stop offset="0" stop-color="#ff1212"/><stop offset="1" stop-color="#ff1212" stop-opacity="0"/></radialGradient><radialGradient cx="320" cy="180" r="47.875" gradientUnits="userSpaceOnUse" id="color-2"><stop offset="0" stop-color="#ff7d7d"/><stop offset="1" stop-color="#ff0000"/></radialGradient><radialGradient cx="320" cy="180" r="47.875" gradientUnits="userSpaceOnUse" id="color-3"><stop offset="0" stop-color="#00d0ff"/><stop offset="1" stop-color="#1100ff"/></radialGradient></defs><g transform="translate(-245.5,-105.5)"><g data-paper-data="{&quot;isPaintingLayer&quot;:true}" fill-rule="nonzero" stroke-linejoin="miter" stroke-miterlimit="10" stroke-dasharray="" stroke-dashoffset="0" style="mix-blend-mode: normal"><g stroke-linecap="butt"><path d="M245.5,180c0,-41.14521 33.35479,-74.5 74.5,-74.5c41.14521,0 74.5,33.35479 74.5,74.5c0,41.14521 -33.35479,74.5 -74.5,74.5c-41.14521,0 -74.5,-33.35479 -74.5,-74.5z" fill="url(#color-1)" stroke="none" stroke-width="0"/><path d="M272.125,180c0,-26.44063 21.43437,-47.875 47.875,-47.875c26.44063,0 47.875,21.43437 47.875,47.875c0,26.44063 -21.43437,47.875 -47.875,47.875c-26.44063,0 -47.875,-21.43437 -47.875,-47.875z" fill="url(#color-2)" stroke="url(#color-3)" stroke-width="0"/><path d="M262.30554,134.60068c0,-1.38071 1.11929,-2.5 2.5,-2.5c1.38071,0 2.5,1.11929 2.5,2.5c0,1.38071 -1.11929,2.5 -2.5,2.5c-1.38071,0 -2.5,-1.11929 -2.5,-2.5z" fill="none" stroke="none" stroke-width="0.5"/></g><path d="M372.30554,230.60068c0,-1.38071 1.11929,-2.5 2.5,-2.5c1.38071,0 2.5,1.11929 2.5,2.5c0,1.38071 -1.11929,2.5 -2.5,2.5c-1.38071,0 -2.5,-1.11929 -2.5,-2.5z" fill="none" stroke="none" stroke-width="0.5" stroke-linecap="butt"/><path d="M305.18388,204.02986l0.70228,-50.21288l24.22859,-8.77848l2.80911,65.31186z" fill="#ff0000" stroke="none" stroke-width="0" stroke-linecap="butt"/><g fill="#ff0000" stroke="#ffd5d5" stroke-width="9" stroke-linecap="round"><path d="M304.20516,155.44609l1.21124,46.99579"/><path d="M296.51196,159.84169l7.6932,-4.3956l1.21124,46.99579l-6.656,-3.17379"/><path d="M304.79396,178.29126l25.38632,-0.52908"/><path d="M304.79396,178.29126l25.38632,-0.52908"/><path d="M336.23429,144.00373l-5.4768,2.39908l1.61498,62.66105l5.36077,2.67242"/></g></g></g></svg>