<svg version="1.1" xmlns="http://www.w3.org/2000/svg" xmlns:xlink="http://www.w3.org/1999/xlink" width="149" height="149" viewBox="0,0,149,149"><defs><radialGradient cx="320" cy="180" r="74.5" gradientUnits="userSpaceOnUse" id="color-1"><stop offset="0" stop-color="#125fff"/><stop offset="1" stop-color="#125fff" stop-opacity="0"/></radialGradient><radialGradient cx="320" cy="180" r="47.875" gradientUnits="userSpaceOnUse" id="color-2"><stop offset="0" stop-color="#00a8ff"/><stop offset="1" stop-color="#006aff"/></radialGradient><radialGradient cx="320" cy="180" r="47.875" gradientUnits="userSpaceOnUse" id="color-3"><stop offset="0" stop-color="#00d0ff"/><stop offset="1" stop-color="#1100ff"/></radialGradient></defs><g transform="translate(-245.5,-105.5)"><g data-paper-data="{&quot;isPaintingLayer&quot;:true}" fill-rule="nonzero" stroke-linecap="butt" stroke-linejoin="miter" stroke-miterlimit="10" stroke-dasharray="" stroke-dashoffset="0" style="mix-blend-mode: normal"><path d="M245.5,180c0,-41.14521 33.35479,-74.5 74.5,-74.5c41.14521,0 74.5,33.35479 74.5,74.5c0,41.14521 -33.35479,74.5 -74.5,74.5c-41.14521,0 -74.5,-33.35479 -74.5,-74.5z" fill="url(#color-1)" stroke="none" stroke-width="0"/><path d="M272.125,180c0,-26.44063 21.43437,-47.875 47.875,-47.875c26.44063,0 47.875,21.43437 47.875,47.875c0,26.44063 -21.43437,47.875 -47.875,47.875c-26.44063,0 -47.875,-21.43437 -47.875,-47.875z" fill="url(#color-2)" stroke="url(#color-3)" stroke-width="0"/><path d="M303.66319,181.63658l9.25,-0.25v20l-7.25534,-0.05041c-11.45364,-0.54966 -20.57105,-10.00997 -20.57105,-21.59976c0,-11.84346 9.52087,-21.4632 21.32639,-21.62298h44.5l-24.5,43.77315h28.5" fill="#0070bf" stroke="#feffca" stroke-width="5"/><path d="M262.30554,134.60068c0,-1.38071 1.11929,-2.5 2.5,-2.5c1.38071,0 2.5,1.11929 2.5,2.5c0,1.38071 -1.11929,2.5 -2.5,2.5c-1.38071,0 -2.5,-1.11929 -2.5,-2.5z" fill="none" stroke="none" stroke-width="0.5"/><path d="M372.30554,230.60068c0,-1.38071 1.11929,-2.5 2.5,-2.5c1.38071,0 2.5,1.11929 2.5,2.5c0,1.38071 -1.11929,2.5 -2.5,2.5c-1.38071,0 -2.5,-1.11929 -2.5,-2.5z" fill="none" stroke="none" stroke-width="0.5"/></g></g></svg>