<svg version="1.1" xmlns="http://www.w3.org/2000/svg" xmlns:xlink="http://www.w3.org/1999/xlink" width="36.33333" height="36.33333" viewBox="0,0,36.33333,36.33333"><defs><radialGradient cx="240" cy="180" r="18.16667" gradientUnits="userSpaceOnUse" id="color-1"><stop offset="0" stop-color="#008eff"/><stop offset="1" stop-color="#008eff" stop-opacity="0"/></radialGradient></defs><g transform="translate(-221.83333,-161.83333)"><g data-paper-data="{&quot;isPaintingLayer&quot;:true}" fill-rule="nonzero" stroke-linecap="butt" stroke-linejoin="miter" stroke-miterlimit="10" stroke-dasharray="" stroke-dashoffset="0" style="mix-blend-mode: normal"><path d="M221.83334,180c0,-10.03317 8.13349,-18.16666 18.16666,-18.16666c10.03318,0 18.16667,8.13349 18.16667,18.16666c0,10.03318 -8.13349,18.16666 -18.16667,18.16666c-10.03317,0 -18.16666,-8.13349 -18.16666,-18.16666z" fill="url(#color-1)" stroke="none" stroke-width="0"/><path d="M229.125,180c0,-6.0061 4.8689,-10.875 10.875,-10.875c6.0061,0 10.875,4.8689 10.875,10.875c0,6.0061 -4.8689,10.875 -10.875,10.875c-6.0061,0 -10.875,-4.8689 -10.875,-10.875z" fill="#00bfff" stroke="#00a9ff" stroke-width="0.5"/><path d="M234.625,183.25473c0,-1.95234 0,-5.64972 0,-7.00313c0,-0.34179 0.18425,-0.95499 0.60163,-1.36117c0.4398,-0.42799 1.1219,-0.64043 1.45254,-0.64043c1.38696,0 5.3804,0 7.95,0c0.53405,0 0.88541,0.0337 1.29552,0.48255c0.24224,0.26512 0.70031,0.92841 0.70031,1.12999c0,1.207 0,4.94145 0,7.13281c0,0.32246 -0.22967,0.96523 -0.54326,1.27912c-0.34724,0.34757 -0.79739,0.35053 -1.15257,0.35053c-2.42732,0 -6.9565,0 -8.4,0c-0.2678,0 -0.94186,-0.0159 -1.28762,-0.22391c-0.48627,-0.29254 -0.61655,-0.83823 -0.61655,-1.14636z" fill="#ffffff" stroke="none" stroke-width="0"/><text transform="translate(235.46181,180.17926) scale(0.31582,0.31582)" font-size="40" xml:space="preserve" fill="#00bfff" fill-rule="nonzero" stroke="none" stroke-width="1" stroke-linecap="butt" stroke-linejoin="miter" stroke-miterlimit="10" stroke-dasharray="" stroke-dashoffset="0" font-family="Sans Serif" font-weight="normal" text-anchor="start" style="mix-blend-mode: normal"><tspan x="0" dy="0">...</tspan></text><path d="M239.43913,183.30629l-6.32966,3.14963l2.03956,-6.00399z" data-paper-data="{&quot;index&quot;:null}" fill="#ffffff" stroke="none" stroke-width="0"/></g></g></svg>